<?xml version="1.0" encoding="iso-8859-1"?>
<!-- Generator: Adobe Illustrator 18.1.1, SVG Export Plug-In . SVG Version: 6.00 Build 0)  -->
<svg version="1.1" id="Capa_1" xmlns="http://www.w3.org/2000/svg" xmlns:xlink="http://www.w3.org/1999/xlink" x="0px" y="0px"
	 viewBox="0 0 612.001 612.001" style="enable-background:new 0 0 612.001 612.001;" xml:space="preserve">
<g>
	<g>
		<path d="M480.208,358.994c0,0-102.693-102.918-103.291-103.609c21.194-16.158,36.757-39.335,43.196-66.033
			c14.327-3.336,24.716-16.105,24.716-31.187c0-13.73-8.797-25.792-21.442-30.23v-10.257C423.389,52.79,370.6,0,305.713,0
			S188.035,52.79,188.035,117.678v10.257c-12.651,4.437-21.452,16.498-21.452,30.23c0,15.084,10.393,27.852,24.727,31.187
			c6.437,26.69,21.994,49.862,43.179,66.02c-1.358,1.573-102.681,103.624-102.681,103.624c-6.379,6.38-9.893,14.862-9.893,23.885
			c0,9.025,3.514,17.508,9.893,23.887c6.387,6.387,14.874,9.905,23.899,9.905c9.026,0,17.512-3.519,23.89-9.905l32.145-32.145
			v72.102h9.55v165.276h168.845l0.001-165.276h9.55v-72.689l32.732,32.732c6.387,6.387,14.874,9.904,23.899,9.904
			c9.027,0,17.512-3.518,23.89-9.904C493.379,393.597,493.379,372.164,480.208,358.994z M419.608,313.527l15.044,15.044
			c-1.229,0.425-2.529,0.659-3.866,0.659c-6.527,0-11.838-5.305-11.838-11.824C418.949,316.063,419.183,314.76,419.608,313.527z
			 M434.13,158.163c0,8.312-4.732,15.568-11.762,19.092c0.67-5.071,1.021-10.242,1.021-15.493v-22.124
			C429.866,143.364,434.13,150.358,434.13,158.163z M177.285,158.163c0-7.808,4.268-14.802,10.752-18.526v22.125
			c0,5.251,0.35,10.423,1.021,15.495C182.02,173.734,177.285,166.476,177.285,158.163z M198.736,161.763v-44.085
			c0-58.988,47.989-106.977,106.977-106.977S412.689,58.69,412.689,117.678v44.085c0,58.988-47.989,106.977-106.976,106.977
			S198.736,220.749,198.736,161.763z M305.713,279.439c22.89,0,44.272-6.577,62.364-17.929c0.595,0.671,2.525,2.982,2.525,2.982
			c12.026,14.916,18.384,32.958,18.384,52.178v119.354H222.442V316.67c0-18.076,5.697-35.272,16.481-49.739
			c1.38-1.858,2.866-3.668,4.425-5.421C261.441,272.862,282.821,279.439,305.713,279.439z M193.817,317.406
			c0,6.519-5.304,11.824-11.824,11.824c-1.526,0-3.022-0.31-4.415-0.872l15.368-15.368
			C193.506,314.383,193.817,315.88,193.817,317.406z M172.028,399.204c-4.359,4.365-10.155,6.768-16.32,6.768
			c-6.166,0-11.966-2.405-16.332-6.771c-4.359-4.359-6.76-10.155-6.76-16.321c0-6.165,2.401-11.961,6.76-16.32l12.184-12.184
			l33.29,32.007L172.028,399.204z M192.418,378.814l-33.29-32.007l10.566-10.566c3.636,2.366,7.903,3.69,12.298,3.69
			c12.421,0,22.525-10.106,22.525-22.525c0-4.397-1.324-8.665-3.689-12.299l14.584-14.584c-2.426,8.405-3.67,17.18-3.67,26.146
			v42.821L192.418,378.814z M300.357,446.725v52.006h-68.365v-52.006H300.357z M231.992,532.169h68.365v18.514
			c-8.24-9.819-20.501-16.008-34.181-16.008c-13.682,0-25.944,6.19-34.185,16.014v-18.519H231.992z M299.916,574.519h-67.477
			c2.635-17.062,16.757-29.142,33.738-29.142S297.279,557.457,299.916,574.519z M311.51,574.519
			c2.635-17.062,16.757-29.142,33.738-29.142c16.981,0,31.103,12.08,33.738,29.142H311.51z M345.248,534.676
			c-13.685,0-25.951,6.193-34.19,16.02v-18.526h68.378v18.522C371.195,540.866,358.931,534.676,345.248,534.676z M379.436,521.469
			h-68.378V509.43h68.378V521.469z M300.357,521.469h-68.365V509.43h68.365V521.469z M231.991,586.273h68.366v15.027h-68.366
			L231.991,586.273L231.991,586.273z M379.435,601.299h-68.377v-15.027h68.377V601.299z M379.436,498.729h-68.378v-52.006h68.378
			V498.729z M395.684,289.602l15.95,15.951c-2.191,3.531-3.387,7.594-3.387,11.854c0,12.42,10.111,22.525,22.539,22.525
			c4.254,0,8.311-1.196,11.839-3.387l11.562,11.562l-33.289,32.007l-21.212-21.212V316.67
			C399.687,307.457,398.311,298.333,395.684,289.602z M472.64,399.203c-4.359,4.366-10.155,6.768-16.321,6.768
			s-11.966-2.404-16.332-6.77l-11.519-11.519l33.29-32.007l10.885,10.885C481.641,375.561,481.641,390.202,472.64,399.203z"/>
		<path d="M393.395,171.047v-18.775c0-48.349-39.333-87.682-87.682-87.682s-87.682,39.333-87.682,87.682v18.775
			c0,2.991,0.627,10.518,0.72,11.24c5.534,43.059,42.422,76.442,86.963,76.442c44.194,0,80.838-32.872,86.812-75.445
			C392.631,182.517,393.395,174.201,393.395,171.047z M382.487,146.922c-3.814-7.239-8.514-13.722-14.051-19.287
			c-11.715-11.779-25.499-19.722-40.592-23.516V78.548C357.895,87.586,380.251,114.525,382.487,146.922z M317.144,76.144v26.031
			c-3.406-0.403-6.859-0.631-10.365-0.631c-4.66,0-9.236,0.376-13.712,1.065V76.348c4.117-0.684,8.337-1.057,12.646-1.057
			C309.597,75.291,313.412,75.586,317.144,76.144z M282.366,78.92v25.998c-22.89,6.475-42.108,21.856-53.454,42.362
			C230.978,115.161,252.819,88.347,282.366,78.92z M236.451,204.593c-7.543-15.52-7.401-33.812,0.306-49.252
			c12.854-25.753,39.538-43.097,70.022-43.097c20.449,0,39.146,7.932,54.072,22.938c6.082,6.11,10.956,13.337,14.599,21.616
			c6.744,15.328,6.803,32.888-0.547,47.933c-12.511,25.611-38.817,43.295-69.19,43.295
			C275.285,248.028,248.934,230.28,236.451,204.593z"/>
		<circle cx="270.428" cy="170.955" r="12.639"/>
		<circle cx="340.996" cy="170.955" r="12.639"/>
		<path d="M305.813,420.274c23.439,0,42.572-18.527,43.234-42.01c9.041-2.073,15.812-10.168,15.812-19.829v-25.369
			c0-11.226-9.133-20.358-20.358-20.358c-11.226,0-20.358,9.132-20.358,20.358v25.369c0,9.085,5.984,16.795,14.216,19.407
			c-0.428,18.3-14.857,31.731-32.545,31.731c-17.381,0-31.624-12.965-32.52-30.779h33.112v-83.371h-59.674v83.371h15.861
			C263.525,402.026,282.55,420.274,305.813,420.274z M334.842,358.435v-25.369c0-5.326,4.332-9.657,9.657-9.657
			c5.326,0,9.657,4.331,9.657,9.657v25.369c0,5.325-4.332,9.659-9.657,9.659S334.842,363.76,334.842,358.435z M257.432,306.123
			h38.273v61.97h-38.273V306.123z"/>
		<circle cx="244.625" cy="412.148" r="10.269"/>
		<circle cx="366.801" cy="412.148" r="10.269"/>
	</g>
</g>
<g>
</g>
<g>
</g>
<g>
</g>
<g>
</g>
<g>
</g>
<g>
</g>
<g>
</g>
<g>
</g>
<g>
</g>
<g>
</g>
<g>
</g>
<g>
</g>
<g>
</g>
<g>
</g>
<g>
</g>
</svg>
