<?xml version="1.0" encoding="iso-8859-1"?>
<!-- Generator: Adobe Illustrator 18.0.0, SVG Export Plug-In . SVG Version: 6.00 Build 0)  -->
<!DOCTYPE svg PUBLIC "-//W3C//DTD SVG 1.1//EN" "http://www.w3.org/Graphics/SVG/1.1/DTD/svg11.dtd">
<svg version="1.1" id="Capa_1" xmlns="http://www.w3.org/2000/svg" xmlns:xlink="http://www.w3.org/1999/xlink" x="0px" y="0px"
	 viewBox="0 0 266.699 266.699" style="enable-background:new 0 0 266.699 266.699;" xml:space="preserve">
<g>
	<path d="M241.794,114.611c-7.392-54.929-44.322-93.711-105.275-90.885C83.183,26.198,20.665,62.282,20.802,120.358
		c-8.702-8.604-20.409,6.984-20.79,15.308c-0.227,4.96,2.564,9.898,7.642,10.965c1,0.209,1.979,0.206,2.944,0.114
		c-3.285,7.133-2.527,15.763,2.88,22.131c-5.622,11.03-3.113,18.795,4.155,24.26c-3.925,12.06-2.414,26.423,5.552,36.538
		c5.943,7.547,16.789,13.728,26.555,11.038c38.553,4.326,78.431,1.509,117.075,1.461c23.361-0.029,57.951,7.29,70.076-18.453
		c0.306-0.649,0.317-1.265,0.214-1.845c0.519-0.717,0.864-1.278,0.574-0.845c0.958-1.431,1.839-2.893,2.611-4.435
		c1.448-2.888,2.555-5.892,3.064-9.094c0.813-5.109,0.025-10.447-3.586-14.281c8.089-6.355,10.554-15.908,3.049-30.214
		c-0.183-0.347-0.418-0.58-0.657-0.806c1.28-1.349,2.142-3.117,2.482-5.077c0.386-2.229,0.33-6.102-1.103-8.471
		c10.297,4.263,22.419-7.418,23.115-17.531C267.595,117.491,252.956,112.476,241.794,114.611z M136.52,29.716
		c24.772-1.103,48.34,5.097,67.869,20.542c24.728,19.556,30.811,46.168,33.329,76.156c-0.058,0.059-0.123,0.076-0.179,0.142
		c-10.083,11.835-39.471,6.648-53.001,6.747c-16.391,0.12-32.782,0.193-49.174,0.195c-14.57,0.001-29.14-0.045-43.71-0.131
		c-19.822-0.117-48.622,3.492-67.048-4.882C23.766,68.3,81.169,32.182,136.52,29.716z M19.047,167.323
		c0.287-0.587,0.545-1.156,0.871-1.764c1.185-2.206-1.944-3.991-3.33-1.946c-0.141,0.209-0.227,0.396-0.364,0.604
		c-4.232-5.891-3.668-13.446,0.037-19.599c1.873-1.25,3.523-2.883,4.795-4.619c0.678-0.925,0.141-1.989-0.706-2.555
		c-0.164-0.127-0.319-0.243-0.522-0.283c-0.485-0.157-0.995-0.181-1.465,0.145c-2.288,1.586-4.782,3.836-7.599,4.364
		c-4.959,0.929-6.378-4.318-5.341-8.069c1.523-5.517,7.94-14.128,14.479-11.519c0.384,0.153,0.687-0.012,0.911-0.262
		c0.051,2.499,0.174,5.022,0.463,7.6c0.121,1.085,1.029,1.6,1.871,1.563c14.275,9.56,29.723,7.787,46.654,8.002
		c13.537,0.172,27.075,0.256,40.613,0.308c-0.916,5.387-2.189,10.236-8.179,12.379c-6.968,2.493-13.917-0.735-19.654-4.613
		c-0.657-0.443-1.342-0.187-1.825,0.283c-0.993-0.77-2.611-0.271-2.618,1.174c-0.043,8.09-8.027,6.432-12.968,4.901
		c-1.669-0.517-2.913,1.11-2.629,2.628c-0.549,5.163-3.255,7.16-8.118,5.992c-2.812-0.391-4.748-1.966-5.807-4.725
		c0.506-0.835-0.53-1.962-1.383-1.383c-1.685,1.142-2.068,2.397-1.709,3.626c-0.124,0.108-0.295,0.152-0.384,0.298
		c-5.727,9.4-15.883,15.981-25.992,7.574C19.11,167.393,19.085,167.356,19.047,167.323z M237.413,209.853
		c-0.447,1.987-1.158,3.943-1.884,5.842c-0.421,1.098-1.18,2.305-1.759,3.52c-0.803,0.072-1.566,0.489-2.043,1.484
		c-3.968,8.271-24.618,14.177-33.239,15.438c-6.704,0.979-14.329,0.05-21.113,0.073c-15.835,0.055-31.67,0.11-47.504,0.164
		c-26.376,0.091-52.751,0.208-79.127,0.324c-0.025-0.001-0.034-0.022-0.06-0.024c-11.255-0.391-20.31-3.596-26.148-13.883
		c-4.827-8.505-4.511-18.366-4.248-27.868c26.652,15.829,98.881,8.851,110.352,8.634c15.954-0.302,78.837,6.948,105.071-7.665
		C237.437,200.609,238.565,204.736,237.413,209.853z M243.552,144.936c-1.444-0.612-2.74,0.67-2.502,1.836
		c-0.814-0.096-1.655,0.24-1.867,1.169c-0.826,3.614,2.727,7.506-0.207,10.991c-1.735,2.06-4.314,1.537-6.459,0.506
		c-0.06-0.028-0.118-0.057-0.177-0.086c-0.281-0.14-0.556-0.287-0.817-0.438c-0.395-0.229-4.304-2.938-5.144-4.469
		c0.164-0.501,0.36-0.97,0.481-1.513c0.009-0.042-0.022-0.079-0.016-0.12c0.235-0.709-0.084-1.446-0.745-1.708
		c-0.646-0.533-1.535-0.691-2.174,0.121c-3.544,4.509-6.895,8.773-13.21,8.973c-6.956,0.22-11.993-5.042-14.175-11.153
		c-0.375-1.051-1.34-1.118-2.009-0.668c-0.776-1.085-2.754-0.923-3.099,0.518c-1.538,6.431-3.926,12.631-11.029,14.634
		c-7.428,2.095-14.995-2.94-17.504-9.86c-0.719-1.982-3.8-1.206-3.206,0.884c0.008,0.029,0.023,0.054,0.031,0.083
		c-0.177,0.083-0.362,0.069-0.528,0.227c-9.743,9.272-21.17,3.607-23.787-8.869c-0.363-1.729-2.464-1.917-3.62-0.955
		c-6.648,5.534-15.094,1.328-17.084-5.738c8.708,0.027,17.416,0.054,26.123,0.06c23.655,0.017,47.378,0.327,71.028-0.272
		c12.092-0.306,21.377,1.333,29.221-8.071c1.11-0.16,2.079-0.936,2.016-2.428c-0.128-3.032-0.411-5.99-0.706-8.94
		c7.537-1.392,18.017-0.118,19.193,9.263C262.635,137.335,252.341,148.667,243.552,144.936z"/>
	<path d="M97.8,48.921c-6.386,0.186-11.787,6.249-13.088,12.148c-0.502,2.272,1.329,3.76,3.459,3.459
		c5.643-0.798,10.311-5.408,11.263-11.012c0.106-0.624,0.045-1.182-0.134-1.69C100.025,50.674,99.374,48.875,97.8,48.921z"/>
	<path d="M109.814,41.057c-2.152-1.783-5.127,0.665-4.229,2.688c-1.027,4.723,1.331,9.569,5.652,11.927
		c1.214,0.662,3.283,0.166,3.522-1.432C115.507,49.207,113.774,44.335,109.814,41.057z"/>
	<path d="M106.902,59.995c-1.128-0.873-3.046-0.759-3.423,0.903c-0.039,0.172-0.033,0.321-0.054,0.484
		c-1.833,2.011-3.343,4.383-3.159,7.219c0.184,2.825,2.035,5.078,4.692,5.889c1.358,0.415,2.668-0.499,3.098-1.758
		C109.231,69.285,110.236,62.573,106.902,59.995z"/>
	<path d="M229.736,122.073c-0.436,0.182-0.885,0.183-1.33,0.292c-2.021-3.86-7.606-5.626-11.624-5.261
		c-1.802,0.164-3.002,1.914-2.073,3.611c3.163,5.776,10.707,7.852,16.369,4.543C232.719,124.298,231.609,121.293,229.736,122.073z"
		/>
	<path d="M218.614,94.863c-1.485-0.324-3.434,0.72-3.262,2.485c0.447,4.601,2.76,8.877,6.979,11.011
		c1.116,1.635,4.551,1.148,4.879-1.524C227.888,101.325,224.001,96.039,218.614,94.863z"/>
	<path d="M39.237,112.325c-1.916,0.666-3.606,1.797-4.908,3.506c-1.57,2.059-3.24,5.954-1.583,8.417
		c1.847,2.744,5.305,1.477,7.086-0.579c2.347-2.708,3.631-6.659,3.862-10.178C43.854,111.053,40.197,110.352,39.237,112.325z"/>
	<path d="M62.957,118.244c-1.621-4.77-7.5-11.546-13.269-9.642c-0.503,0.166-0.854,0.496-1.115,0.881
		c-0.389,0.377-0.668,0.876-0.547,1.592c1.007,5.988,6.359,10.435,12.421,10.464C62.058,121.547,63.506,119.858,62.957,118.244z"/>
</g>
<g>
</g>
<g>
</g>
<g>
</g>
<g>
</g>
<g>
</g>
<g>
</g>
<g>
</g>
<g>
</g>
<g>
</g>
<g>
</g>
<g>
</g>
<g>
</g>
<g>
</g>
<g>
</g>
<g>
</g>
</svg>
