<?xml version="1.0" encoding="iso-8859-1"?>
<!-- Generator: Adobe Illustrator 18.1.1, SVG Export Plug-In . SVG Version: 6.00 Build 0)  -->
<svg version="1.1" id="Capa_1" xmlns="http://www.w3.org/2000/svg" xmlns:xlink="http://www.w3.org/1999/xlink" x="0px" y="0px"
	 viewBox="0 0 611.999 611.999" style="enable-background:new 0 0 611.999 611.999;" xml:space="preserve">
<g>
	<g>
		<g>
			<path d="M8.954,165.166c-1.034,59.191,38.665,109.613,93.269,124.528c3.989-10.036,8.72-19.793,14.189-29.226
				c14.846-25.605,34.454-47.684,58.283-65.625c19.472-14.652,40.986-25.904,63.944-33.443c7.659-2.515,15.433-4.591,23.292-6.246
				C255.872,91.81,203.078,41.747,137.943,40.609C67.928,39.385,10.178,95.151,8.954,165.166z"/>
			<circle cx="398.354" cy="68.788" r="68.788"/>
			<path d="M564.656,128.928c-20.607-0.001-43.647,8.274-61.59,16.223c-11.879,5.263-16.944,19.388-11.133,31.009l1.687,3.373
				c3.972,7.944,12.001,12.599,20.384,12.599c2.996,0,6.037-0.594,8.954-1.846c23.035-9.884,35.055-11.534,40.504-11.534
				c0.581,0,1.086,0.018,1.523,0.048c2.966,13.71-39.773,72.777-83.807,104.705c-5.11-10.048-11.084-19.794-18.097-29.111
				c-38.246-50.81-96.588-77.585-155.639-77.588c-15.329-0.001-30.705,1.804-45.791,5.459c-25.009,6.06-49.218,17.207-71.089,33.665
				c-27.926,21.025-48.583,48.119-61.533,78.06c-26.868,62.118-20.534,136.501,23.078,194.441
				c7.084,9.404,14.882,17.936,23.216,25.685c-53.49,39.998-104.077,51.184-123.857,52.214c0.884-4.246,4.587-15.6,21.243-36.496
				c7.479-9.384,6.412-22.961-2.457-31.045l-2.813-2.563c-4.381-3.993-9.883-5.953-15.356-5.953c-6.541,0-13.041,2.798-17.541,8.269
				c-21.571,26.227-47.763,67.001-23.601,96.969c9.144,11.341,23.74,16.49,42.406,16.49c158.631,0,613.294-371.002,551.671-463.65
				C595.485,134.018,580.819,128.928,564.656,128.928z"/>
		</g>
		<path d="M425.93,528.217c50.065-37.672,76.765-94.83,77.561-152.957c-34.589,30.808-75.642,65.297-120.7,99.21
			c-44.368,33.421-87.589,62.359-125.137,85.979C313.701,575.727,375.944,565.877,425.93,528.217z"/>
	</g>
</g>
<g>
</g>
<g>
</g>
<g>
</g>
<g>
</g>
<g>
</g>
<g>
</g>
<g>
</g>
<g>
</g>
<g>
</g>
<g>
</g>
<g>
</g>
<g>
</g>
<g>
</g>
<g>
</g>
<g>
</g>
</svg>
